<svg xmlns="http://www.w3.org/2000/svg" viewBox="0 0 856.73 1080.73"><g fill="#4a56f6"><path d="M729.15,436.7c25.86,21.02,45.37,44.84,58.53,71.48,5.83,11.8.66,26.06-11.47,31.16l-62.64,26.32c-11.17,4.69-24.02.26-30.04-10.25-6.41-11.19-14.85-21.08-25.35-29.66-16.17-13.22-36.89-19.84-62.15-19.84s-47.16,6.03-63.91,18.07c-16.75,12.05-25.12,27.77-25.12,47.16s7.93,34.82,23.8,48.04c15.87,13.22,42.01,26.01,78.46,38.35l39.67,13.22c54.66,18.82,96.53,43.64,125.62,74.49,22.04,23.38,35.71,52.25,41.05,86.58,56.83-120.26,59.43-267.31-21.82-401.73-11.35-18.77-59.18-85.47-77.45-91.45-37.01-12.13-48.56,31.87-65.27,56.05-1.44,2.09-2.92,4.18-4.43,6.28,32.91,5.91,60.43,17.8,82.51,35.73Z"></path><path d="M455.87,1009.28c-24.62-18.12-44.93-40.65-61-67.53-.02-.03-.06-.05-.08-.08l-14.56-25.01-191.64-319.6c-.78-1.31-2.2-2.11-3.72-2.11h0c-2.49,0-4.47,2.1-4.33,4.59l6.78,116.94c0,.08,0,.17,0,.25v290.26c39.44,26.7,84.41,47.34,134.32,59.97,90.83,22.99,177.4,16.04,253.45-12.3-44.23-4.33-83.99-19.42-119.24-45.38Z"></path><path d="M70.08,431.93c0-11.72,9.5-21.23,21.23-21.23h89.12c17.41,0,33.53,9.14,42.48,24.07l235.28,392.86c.04.07.08.15.12.23h.01c16.9,33.58,44.27,65.36,65.43,85.33,21.16,19.99,47.61,29.97,79.34,29.97,26.45,0,49.07-6.61,67.88-19.84,18.8-13.22,28.21-31.58,28.21-55.1s-8.97-42.75-26.89-57.74c-17.93-14.99-49.81-30.99-95.65-48.04l-38.79-14.11c-40.55-14.1-75.23-35.7-104.02-64.79-28.8-29.09-43.2-65.68-43.2-109.75,0-32.91,8.51-62.88,25.56-89.92,17.04-27.03,41.13-48.33,72.29-63.91,31.14-15.57,66.41-23.36,105.79-23.36,8.84,0,17.35.36,25.61,1,1.98-94.85-26.1-187.97-81.61-265.14-32.3-44.91-95.63-105.6-146.41-128.05-21.87-9.67-45.26-3.82-50.26,21.7-8.66,44.21-9.56,73.96-28.24,117.44-54.75,127.39-146.34,147.3-222.21,244.38-120.14,153.73-115.59,353.63-21.07,499.25v-455.24Z"></path></g></svg>