<?xml version="1.0" encoding="UTF-8"?>
<svg id="Layer_2" data-name="Layer 2" xmlns="http://www.w3.org/2000/svg" viewBox="0 0 839.66 149.28">
  <defs>
    <style>
      .cls-1 {
        fill: #5261ac;
      }
    </style>
  </defs>
  <g id="Layer_1-2" data-name="Layer 1">
    <g>
      <path class="cls-1" d="M45.05,32.81c-5.13,0-9.89,1.13-14.28,3.38-4.4,2.25-7.8,5.31-10.2,9.18h-1.26v-10.05H0v80.06h20.56v-40.81c0-6.49,1.7-11.88,5.1-16.17,3.4-4.29,7.87-6.44,13.42-6.44,4.71,0,8.37,1.41,10.99,4.24,2.61,2.83,3.92,6.8,3.92,11.93v47.25h20.56v-49.76c0-10.15-2.51-18.16-7.54-24.02-5.02-5.86-12.35-8.79-21.98-8.79Z"/>
      <path class="cls-1" d="M96.23,0c-3.66,0-6.8,1.28-9.42,3.85-2.62,2.57-3.92,5.68-3.92,9.34s1.31,6.8,3.92,9.42c2.61,2.62,5.75,3.92,9.42,3.92s6.77-1.31,9.34-3.92c2.56-2.61,3.85-5.75,3.85-9.42s-1.28-6.77-3.85-9.34c-2.57-2.56-5.68-3.85-9.34-3.85Z"/>
      <rect class="cls-1" x="85.87" y="35.32" width="20.56" height="80.06"/>
      <path class="cls-1" d="M158.86,67.66l-11.77-2.83c-7.12-1.88-10.67-4.71-10.67-8.48,0-1.99,1.04-3.63,3.14-4.95,2.09-1.31,4.92-1.96,8.48-1.96,6.91,0,11.93,2.83,15.07,8.48l17.58-7.69c-5.55-11.62-16.59-17.42-33.12-17.42-5.76,0-11.02,1-15.78,2.98-4.76,1.99-8.53,4.81-11.3,8.48-2.77,3.66-4.16,7.8-4.16,12.4,0,6.18,2.14,11.33,6.44,15.46,4.29,4.14,9.68,6.99,16.17,8.56l9.42,2.04c4.6,1.05,8.06,2.22,10.36,3.53,2.3,1.31,3.45,3.27,3.45,5.89s-1.26,4.68-3.77,5.89c-2.51,1.2-5.65,1.8-9.42,1.8-4.08,0-7.67-.97-10.75-2.9-3.09-1.94-5.47-4.79-7.14-8.56l-18.37,8.01c2.41,6.38,6.62,11.56,12.64,15.54,6.02,3.98,13.89,5.96,23.62,5.96,6.28,0,12.01-1.1,17.19-3.3,5.18-2.2,9.26-5.26,12.24-9.18,2.98-3.92,4.47-8.45,4.47-13.58,0-5.97-2.02-10.99-6.04-15.07-4.03-4.08-10.02-7.12-17.97-9.1Z"/>
      <path class="cls-1" d="M233.26,32.81c-5.13,0-9.89,1.15-14.29,3.45-4.4,2.3-7.75,5.34-10.05,9.1h-1.26l1.26-13.97V2.98h-20.56v112.39h20.56v-40.66c0-6.38,1.75-11.77,5.26-16.17,3.5-4.4,7.98-6.59,13.42-6.59,4.6,0,8.29,1.41,11.07,4.24,2.77,2.83,4.16,6.8,4.16,11.93v47.25h20.56v-49.76c0-10.25-2.59-18.29-7.77-24.1-5.18-5.81-12.64-8.71-22.37-8.71Z"/>
      <path class="cls-1" d="M332.16,41.29c-6.38-5.65-15.7-8.48-27.94-8.48-6.91,0-13.29,1.36-19.15,4.08-5.86,2.72-10.73,6.59-14.6,11.62l13.19,10.36c2.3-2.83,5.21-5.1,8.71-6.83,3.5-1.73,7.14-2.59,10.91-2.59,5.55,0,9.97,1.36,13.26,4.08,3.3,2.72,4.94,6.28,4.94,10.67v3.45c-5.86-2.41-12.93-3.61-21.19-3.61-5.96,0-11.41,1.1-16.33,3.3-4.92,2.2-8.79,5.34-11.62,9.42-2.83,4.08-4.24,8.79-4.24,14.13,0,8.06,2.72,14.57,8.16,19.54,5.44,4.97,12.4,7.46,20.88,7.46,5.13,0,9.65-1,13.58-2.98,3.92-1.99,7.09-4.55,9.5-7.69h1.26v8.16h20.25v-49.29c0-10.88-3.19-19.15-9.58-24.8ZM316.22,96.15c-3.51,3.82-8.24,5.73-14.21,5.73-4.29,0-7.59-1.02-9.89-3.06-2.3-2.04-3.45-4.68-3.45-7.93,0-7.95,5.34-11.93,16.01-11.93,5.86,0,11.46,1.26,16.8,3.77,0,5.13-1.75,9.6-5.26,13.42Z"/>
      <path class="cls-1" d="M396.36,32.81c-5.13,0-9.89,1.13-14.29,3.38-4.4,2.25-7.8,5.31-10.2,9.18h-1.26v-10.05h-19.31v80.06h20.56v-40.81c0-6.49,1.7-11.88,5.1-16.17,3.4-4.29,7.87-6.44,13.42-6.44,4.71,0,8.37,1.41,10.99,4.24,2.62,2.83,3.92,6.8,3.92,11.93v47.25h20.56v-49.76c0-10.15-2.51-18.16-7.53-24.02-5.02-5.86-12.35-8.79-21.98-8.79Z"/>
      <path class="cls-1" d="M488.03,67.66l-11.77-2.83c-7.12-1.88-10.67-4.71-10.67-8.48,0-1.99,1.04-3.63,3.14-4.95,2.09-1.31,4.92-1.96,8.48-1.96,6.91,0,11.93,2.83,15.07,8.48l17.58-7.69c-5.55-11.62-16.59-17.42-33.12-17.42-5.76,0-11.02,1-15.78,2.98-4.76,1.99-8.53,4.81-11.3,8.48-2.77,3.66-4.16,7.8-4.16,12.4,0,6.18,2.14,11.33,6.44,15.46,4.29,4.14,9.68,6.99,16.17,8.56l9.42,2.04c4.6,1.05,8.06,2.22,10.36,3.53,2.3,1.31,3.45,3.27,3.45,5.89s-1.26,4.68-3.77,5.89c-2.51,1.2-5.65,1.8-9.42,1.8-4.08,0-7.67-.97-10.75-2.9-3.09-1.94-5.47-4.79-7.14-8.56l-18.37,8.01c2.41,6.38,6.62,11.56,12.64,15.54,6.02,3.98,13.89,5.96,23.62,5.96,6.28,0,12.01-1.1,17.19-3.3,5.18-2.2,9.26-5.26,12.24-9.18,2.98-3.92,4.47-8.45,4.47-13.58,0-5.97-2.02-10.99-6.04-15.07-4.03-4.08-10.02-7.12-17.97-9.1Z"/>
      <path class="cls-1" d="M580.41,38.22c-5.91-3.61-12.48-5.42-19.7-5.42-5.44,0-10.26,1.18-14.44,3.53-4.19,2.35-7.38,5.26-9.58,8.71h-1.26v-9.73h-19.31v113.96h20.56v-32.18l-1.26-11.3h1.26c2.09,3.45,5.26,6.33,9.5,8.63,4.24,2.3,9.08,3.45,14.52,3.45,7.22,0,13.79-1.81,19.7-5.42,5.91-3.61,10.54-8.63,13.89-15.07,3.35-6.44,5.02-13.79,5.02-22.05s-1.67-15.49-5.02-21.98c-3.35-6.49-7.98-11.54-13.89-15.15ZM575.94,87.59c-1.99,3.56-4.66,6.33-8,8.32-3.35,1.99-6.96,2.98-10.83,2.98s-7.33-.99-10.67-2.98c-3.35-1.99-6.02-4.76-8.01-8.32-1.99-3.56-2.98-7.64-2.98-12.24s.99-8.69,2.98-12.24c1.99-3.56,4.66-6.3,8.01-8.24,3.35-1.94,6.91-2.9,10.67-2.9s7.48.97,10.83,2.9c3.35,1.94,6.02,4.68,8,8.24,1.99,3.56,2.98,7.64,2.98,12.24s-1,8.69-2.98,12.24Z"/>
      <path class="cls-1" d="M665.25,41.29c-6.38-5.65-15.7-8.48-27.94-8.48-6.91,0-13.29,1.36-19.15,4.08-5.86,2.72-10.73,6.59-14.6,11.62l13.19,10.36c2.3-2.83,5.21-5.1,8.71-6.83,3.5-1.73,7.14-2.59,10.91-2.59,5.55,0,9.97,1.36,13.26,4.08,3.3,2.72,4.94,6.28,4.94,10.67v3.45c-5.86-2.41-12.93-3.61-21.19-3.61-5.96,0-11.41,1.1-16.33,3.3-4.92,2.2-8.79,5.34-11.62,9.42-2.83,4.08-4.24,8.79-4.24,14.13,0,8.06,2.72,14.57,8.16,19.54,5.44,4.97,12.4,7.46,20.88,7.46,5.13,0,9.65-1,13.58-2.98,3.92-1.99,7.09-4.55,9.5-7.69h1.26v8.16h20.25v-49.29c0-10.88-3.19-19.15-9.58-24.8ZM649.32,96.15c-3.51,3.82-8.24,5.73-14.21,5.73-4.29,0-7.59-1.02-9.89-3.06-2.3-2.04-3.45-4.68-3.45-7.93,0-7.95,5.34-11.93,16.01-11.93,5.86,0,11.46,1.26,16.8,3.77,0,5.13-1.75,9.6-5.26,13.42Z"/>
      <path class="cls-1" d="M721.29,98.89c-6.28,0-11.43-2.14-15.46-6.44-4.03-4.29-6.04-9.99-6.04-17.11s2.01-12.66,6.04-16.95c4.03-4.29,9.18-6.44,15.46-6.44,8.58,0,14.54,3.56,17.89,10.67l18.84-7.85c-2.83-7.01-7.43-12.42-13.81-16.25-6.38-3.82-14.02-5.73-22.92-5.73-8.06,0-15.28,1.83-21.66,5.49-6.38,3.67-11.38,8.71-14.99,15.15-3.61,6.44-5.42,13.74-5.42,21.9s1.8,15.49,5.42,21.98c3.61,6.49,8.61,11.54,14.99,15.15,6.38,3.61,13.6,5.42,21.66,5.42,8.79,0,16.38-1.94,22.76-5.81,6.38-3.87,11.3-9.31,14.76-16.33l-18.68-8.16c-3.87,7.53-10.15,11.3-18.84,11.3Z"/>
      <path class="cls-1" d="M839.66,73.31c0-7.54-1.54-14.39-4.63-20.56-3.09-6.17-7.61-11.04-13.58-14.6-5.96-3.56-13.08-5.34-21.35-5.34-7.75,0-14.76,1.94-21.03,5.81-6.28,3.87-11.2,9.08-14.76,15.62-3.56,6.54-5.34,13.63-5.34,21.27,0,8.06,1.8,15.31,5.42,21.74,3.61,6.44,8.61,11.49,14.99,15.15,6.38,3.66,13.55,5.49,21.51,5.49,16.64,0,29.04-7.12,37.2-21.35l-16.64-8.16c-1.99,3.45-4.68,6.2-8.08,8.24-3.4,2.04-7.46,3.06-12.17,3.06-5.65,0-10.49-1.65-14.52-4.95-4.03-3.3-6.57-8.14-7.61-14.52h60.12c.31-2.2.47-4.5.47-6.91ZM780,65.62c1.57-4.92,4.11-8.82,7.61-11.7,3.5-2.88,7.72-4.32,12.64-4.32,3.87,0,7.25.81,10.12,2.43,2.88,1.62,5.13,3.67,6.75,6.12,1.62,2.46,2.54,4.95,2.75,7.46h-39.87Z"/>
    </g>
  </g>
</svg>