<svg xmlns="http://www.w3.org/2000/svg" viewBox="0 0 1086.03 241.22"><defs></defs><g><g class="wm-text" fill="#f4f1ea"><path d="M246.38,101.12h19.31v10.05h1.26c2.41-3.87,5.81-6.93,10.2-9.18,4.4-2.25,9.16-3.38,14.28-3.38,9.63,0,16.95,2.93,21.98,8.79,5.02,5.86,7.54,13.87,7.54,24.02v49.76h-20.56v-47.25c0-5.13-1.31-9.11-3.92-11.93-2.62-2.83-6.28-4.24-10.99-4.24-5.55,0-10.02,2.15-13.42,6.44-3.4,4.29-5.1,9.68-5.1,16.17v40.81h-20.56v-80.06Z"></path><path d="M333.18,88.41c-2.62-2.61-3.92-5.75-3.92-9.42s1.31-6.77,3.92-9.34c2.61-2.56,5.75-3.85,9.42-3.85s6.77,1.28,9.34,3.85c2.56,2.57,3.85,5.68,3.85,9.34s-1.28,6.8-3.85,9.42c-2.57,2.62-5.68,3.92-9.34,3.92s-6.8-1.31-9.42-3.92ZM332.24,101.12h20.56v80.06h-20.56v-80.06Z"></path><path d="M371.72,177.73c-6.02-3.98-10.23-9.16-12.64-15.54l18.37-8.01c1.67,3.77,4.05,6.62,7.14,8.56,3.09,1.94,6.67,2.9,10.75,2.9,3.77,0,6.91-.6,9.42-1.8,2.51-1.2,3.77-3.16,3.77-5.89s-1.15-4.58-3.45-5.89c-2.3-1.31-5.76-2.48-10.36-3.53l-9.42-2.04c-6.49-1.57-11.88-4.42-16.17-8.56-4.29-4.13-6.44-9.29-6.44-15.46,0-4.6,1.39-8.74,4.16-12.4,2.77-3.66,6.54-6.49,11.3-8.48,4.76-1.99,10.02-2.98,15.78-2.98,16.53,0,27.57,5.81,33.12,17.42l-17.58,7.69c-3.14-5.65-8.16-8.48-15.07-8.48-3.56,0-6.38.66-8.48,1.96-2.09,1.31-3.14,2.96-3.14,4.95,0,3.77,3.56,6.59,10.67,8.48l11.77,2.83c7.95,1.99,13.94,5.02,17.97,9.1,4.03,4.08,6.04,9.1,6.04,15.07,0,5.13-1.49,9.65-4.47,13.58-2.98,3.92-7.06,6.99-12.24,9.18-5.18,2.2-10.91,3.3-17.19,3.3-9.73,0-17.61-1.99-23.62-5.96Z"></path><path d="M434.74,68.79h20.56v28.41l-1.26,13.97h1.26c2.3-3.77,5.65-6.8,10.05-9.1,4.4-2.3,9.16-3.45,14.29-3.45,9.73,0,17.19,2.9,22.37,8.71,5.18,5.81,7.77,13.84,7.77,24.1v49.76h-20.56v-47.25c0-5.13-1.39-9.11-4.16-11.93-2.77-2.83-6.46-4.24-11.07-4.24-5.44,0-9.92,2.2-13.42,6.59-3.51,4.4-5.26,9.79-5.26,16.17v40.66h-20.56v-112.39Z"></path><path d="M522.65,176.24c-5.44-4.97-8.16-11.48-8.16-19.54,0-5.34,1.41-10.05,4.24-14.13,2.83-4.08,6.7-7.22,11.62-9.42,4.92-2.2,10.36-3.3,16.33-3.3,8.27,0,15.33,1.2,21.19,3.61v-3.45c0-4.4-1.65-7.95-4.94-10.67-3.3-2.72-7.72-4.08-13.26-4.08-3.77,0-7.4.86-10.91,2.59-3.51,1.73-6.41,4-8.71,6.83l-13.19-10.36c3.87-5.02,8.74-8.89,14.6-11.62,5.86-2.72,12.24-4.08,19.15-4.08,12.24,0,21.56,2.83,27.94,8.48,6.38,5.65,9.58,13.92,9.58,24.8v49.29h-20.25v-8.16h-1.26c-2.41,3.14-5.57,5.71-9.5,7.69-3.92,1.99-8.45,2.98-13.58,2.98-8.48,0-15.44-2.49-20.88-7.46ZM562.6,161.95c3.5-3.82,5.26-8.29,5.26-13.42-5.34-2.51-10.94-3.77-16.8-3.77-10.67,0-16.01,3.98-16.01,11.93,0,3.25,1.15,5.89,3.45,7.93,2.3,2.04,5.6,3.06,9.89,3.06,5.97,0,10.7-1.91,14.21-5.73Z"></path><path d="M597.68,101.12h19.31v10.05h1.26c2.41-3.87,5.81-6.93,10.2-9.18,4.4-2.25,9.16-3.38,14.29-3.38,9.63,0,16.95,2.93,21.98,8.79,5.02,5.86,7.53,13.87,7.53,24.02v49.76h-20.56v-47.25c0-5.13-1.31-9.11-3.92-11.93-2.62-2.83-6.28-4.24-10.99-4.24-5.55,0-10.02,2.15-13.42,6.44-3.4,4.29-5.1,9.68-5.1,16.17v40.81h-20.56v-80.06Z"></path></g><g class="wm-accent" fill="#f4f1ea"><path d="M700.89,177.73c-6.02-3.98-10.23-9.16-12.64-15.54l18.37-8.01c1.67,3.77,4.05,6.62,7.14,8.56,3.08,1.94,6.67,2.9,10.75,2.9,3.77,0,6.91-.6,9.42-1.8,2.51-1.2,3.77-3.16,3.77-5.89s-1.15-4.58-3.45-5.89c-2.3-1.31-5.76-2.48-10.36-3.53l-9.42-2.04c-6.49-1.57-11.88-4.42-16.17-8.56-4.29-4.13-6.44-9.29-6.44-15.46,0-4.6,1.39-8.74,4.16-12.4,2.77-3.66,6.54-6.49,11.3-8.48,4.76-1.99,10.02-2.98,15.78-2.98,16.53,0,27.57,5.81,33.12,17.42l-17.58,7.69c-3.14-5.65-8.16-8.48-15.07-8.48-3.56,0-6.38.66-8.48,1.96-2.09,1.31-3.14,2.96-3.14,4.95,0,3.77,3.56,6.59,10.67,8.48l11.77,2.83c7.95,1.99,13.94,5.02,17.97,9.1,4.03,4.08,6.04,9.1,6.04,15.07,0,5.13-1.49,9.65-4.47,13.58-2.98,3.92-7.06,6.99-12.24,9.18-5.18,2.2-10.91,3.3-17.19,3.3-9.73,0-17.61-1.99-23.62-5.96Z"></path><path d="M762.51,101.12h19.31v9.73h1.26c2.2-3.45,5.39-6.36,9.58-8.71,4.18-2.35,9-3.53,14.44-3.53,7.22,0,13.79,1.81,19.7,5.42,5.91,3.61,10.54,8.66,13.89,15.15,3.35,6.49,5.02,13.81,5.02,21.98s-1.67,15.62-5.02,22.05c-3.35,6.44-7.98,11.46-13.89,15.07-5.91,3.61-12.48,5.42-19.7,5.42-5.44,0-10.28-1.15-14.52-3.45-4.24-2.3-7.41-5.18-9.5-8.63h-1.26l1.26,11.3v32.18h-20.56v-113.96ZM814.31,161.72c3.35-1.99,6.02-4.76,8-8.32,1.99-3.56,2.98-7.64,2.98-12.24s-1-8.69-2.98-12.24c-1.99-3.56-4.66-6.3-8-8.24-3.35-1.94-6.96-2.9-10.83-2.9s-7.33.97-10.67,2.9c-3.35,1.94-6.02,4.68-8.01,8.24-1.99,3.56-2.98,7.64-2.98,12.24s.99,8.69,2.98,12.24c1.99,3.56,4.66,6.33,8.01,8.32,3.35,1.99,6.91,2.98,10.67,2.98s7.48-.99,10.83-2.98Z"></path><path d="M855.75,176.24c-5.44-4.97-8.16-11.48-8.16-19.54,0-5.34,1.41-10.05,4.24-14.13,2.83-4.08,6.7-7.22,11.62-9.42,4.92-2.2,10.36-3.3,16.33-3.3,8.27,0,15.33,1.2,21.19,3.61v-3.45c0-4.4-1.65-7.95-4.94-10.67-3.3-2.72-7.72-4.08-13.26-4.08-3.77,0-7.4.86-10.91,2.59-3.51,1.73-6.41,4-8.71,6.83l-13.19-10.36c3.87-5.02,8.74-8.89,14.6-11.62,5.86-2.72,12.24-4.08,19.15-4.08,12.24,0,21.56,2.83,27.94,8.48,6.38,5.65,9.58,13.92,9.58,24.8v49.29h-20.25v-8.16h-1.26c-2.41,3.14-5.57,5.71-9.5,7.69-3.92,1.99-8.45,2.98-13.58,2.98-8.48,0-15.44-2.49-20.88-7.46ZM895.7,161.95c3.5-3.82,5.26-8.29,5.26-13.42-5.34-2.51-10.94-3.77-16.8-3.77-10.67,0-16.01,3.98-16.01,11.93,0,3.25,1.15,5.89,3.45,7.93,2.3,2.04,5.6,3.06,9.89,3.06,5.97,0,10.7-1.91,14.21-5.73Z"></path><path d="M946.01,178.28c-6.38-3.61-11.38-8.66-14.99-15.15-3.61-6.49-5.42-13.81-5.42-21.98s1.8-15.46,5.42-21.9c3.61-6.44,8.61-11.48,14.99-15.15,6.38-3.66,13.6-5.49,21.66-5.49,8.89,0,16.53,1.91,22.92,5.73,6.38,3.82,10.99,9.24,13.81,16.25l-18.84,7.85c-3.35-7.12-9.32-10.67-17.89-10.67-6.28,0-11.43,2.15-15.46,6.44-4.03,4.29-6.04,9.94-6.04,16.95s2.01,12.82,6.04,17.11c4.03,4.29,9.18,6.44,15.46,6.44,8.68,0,14.96-3.77,18.84-11.3l18.68,8.16c-3.45,7.01-8.37,12.46-14.76,16.33-6.38,3.87-13.97,5.81-22.76,5.81-8.06,0-15.28-1.81-21.66-5.42Z"></path><path d="M1025.75,178.2c-6.38-3.66-11.38-8.71-14.99-15.15-3.61-6.44-5.42-13.68-5.42-21.74,0-7.64,1.78-14.73,5.34-21.27,3.56-6.54,8.48-11.75,14.76-15.62,6.28-3.87,13.29-5.81,21.03-5.81,8.27,0,15.38,1.78,21.35,5.34,5.96,3.56,10.49,8.42,13.58,14.6,3.09,6.18,4.63,13.03,4.63,20.56,0,2.41-.16,4.71-.47,6.91h-60.12c1.04,6.38,3.58,11.22,7.61,14.52,4.03,3.3,8.87,4.95,14.52,4.95,4.71,0,8.76-1.02,12.17-3.06,3.4-2.04,6.09-4.79,8.08-8.24l16.64,8.16c-8.16,14.23-20.56,21.35-37.2,21.35-7.95,0-15.12-1.83-21.51-5.49ZM1066.25,131.42c-.21-2.51-1.13-5-2.75-7.46-1.62-2.46-3.87-4.5-6.75-6.12-2.88-1.62-6.25-2.43-10.12-2.43-4.92,0-9.13,1.44-12.64,4.32-3.51,2.88-6.04,6.78-7.61,11.7h39.87Z"></path></g><path class="wm-text" d="M230.34,25.91c1.93,0,1.93-3,0-3s-1.93,3,0,3h0Z"></path><g class="wm-accent" fill="#f4f1ea"><path d="M162.75,97.47c5.77,4.69,10.13,10.01,13.06,15.95,1.3,2.63.15,5.82-2.56,6.95l-13.98,5.87c-2.49,1.05-5.36.06-6.71-2.29-1.43-2.5-3.32-4.7-5.66-6.62-3.61-2.95-8.23-4.43-13.87-4.43s-10.53,1.35-14.27,4.03c-3.74,2.69-5.61,6.2-5.61,10.53s1.77,7.77,5.31,10.72c3.54,2.95,9.38,5.8,17.51,8.56l8.85,2.95c12.2,4.2,21.55,9.74,28.04,16.63,4.92,5.22,7.97,11.66,9.16,19.33,12.69-26.84,13.27-59.67-4.87-89.67-2.53-4.19-13.21-19.08-17.29-20.41-8.26-2.71-10.84,7.11-14.57,12.51-.32.47-.65.93-.99,1.4,7.35,1.32,13.49,3.97,18.42,7.98Z"></path><path d="M101.75,225.28c-5.5-4.04-10.03-9.07-13.62-15.07,0,0-.01-.01-.02-.02l-3.25-5.58-42.77-71.34c-.17-.29-.49-.47-.83-.47h0c-.56,0-1,.47-.97,1.02l1.51,26.1s0,.04,0,.06v64.79c8.8,5.96,18.84,10.57,29.98,13.39,20.27,5.13,39.6,3.58,56.57-2.74-9.87-.97-18.75-4.34-26.61-10.13Z"></path><path d="M15.64,96.41c0-2.62,2.12-4.74,4.74-4.74h19.89c3.89,0,7.48,2.04,9.48,5.37l52.52,87.69s.02.03.03.05h0c3.77,7.49,9.88,14.59,14.6,19.05,4.72,4.46,10.63,6.69,17.71,6.69,5.9,0,10.95-1.48,15.15-4.43,4.2-2.95,6.3-7.05,6.3-12.3s-2-9.54-6-12.89c-4-3.35-11.12-6.92-21.35-10.72l-8.66-3.15c-9.05-3.15-16.79-7.97-23.22-14.46-6.43-6.49-9.64-14.66-9.64-24.5,0-7.35,1.9-14.04,5.71-20.07,3.8-6.03,9.18-10.79,16.14-14.27,6.95-3.47,14.82-5.21,23.61-5.21,1.97,0,3.87.08,5.72.22.44-21.17-5.83-41.96-18.22-59.18-7.21-10.02-21.34-23.57-32.68-28.58-4.88-2.16-10.1-.85-11.22,4.84-1.93,9.87-2.13,16.51-6.3,26.21-12.22,28.43-32.66,32.88-49.6,54.55-26.82,34.31-25.8,78.93-4.7,111.44v-101.61Z"></path></g></g></svg>